<?xml version="1.0" encoding="UTF-8"?>
<!DOCTYPE svg PUBLIC "-//W3C//DTD SVG 1.1//EN" "http://www.w3.org/Graphics/SVG/1.1/DTD/svg11.dtd">
<!-- Creator: CorelDRAW X8 -->
<svg xmlns="http://www.w3.org/2000/svg" xml:space="preserve" width="11.6929in" height="16.5354in" version="1.1" style="shape-rendering:geometricPrecision; text-rendering:geometricPrecision; image-rendering:optimizeQuality; fill-rule:evenodd; clip-rule:evenodd"
viewBox="0 0 11693 16535"
 xmlns:xlink="http://www.w3.org/1999/xlink">
 <defs>
  <style type="text/css">
   <![CDATA[
    .str0 {stroke:black;stroke-width:6.94488}
    .fil0 {fill:none}
   ]]>
  </style>
 </defs>
 <g id="Layer_x0020_1">
  <metadata id="CorelCorpID_0Corel-Layer"/>
  <path class="fil0 str0" d="M10217 9075l107 -107m-225 107l225 -225m-343 225l343 -343m-461 343l461 -461m-580 461l580 -579m-698 579l698 -697m-816 697l816 -815m-934 815l934 -934m-1052 934l1052 -1052m-1170 1052l1170 -1170m-1288 1170l1288 -1288m-1406 1288l1406 -1406m-1524 1406l1524 -1524m-1643 1524l1643 -1642m-1761 1642l1761 -1760m-1879 1760l1876 -1875m-1994 1875l1876 -1875m-1994 1875l1875 -1875m-1993 1875l1875 -1875m-1993 1875l1875 -1875m-1993 1875l1875 -1875m-1993 1875l1875 -1875m-1993 1875l1875 -1875m-1994 1875l1876 -1875m-1994 1875l1876 -1875m-1994 1875l1876 -1875m-1994 1875l1875 -1875m-1993 1875l1875 -1875m-1993 1875l1875 -1875m-1993 1875l1875 -1875m-1993 1875l1875 -1875m-1993 1875l1875 -1875m-1994 1875l1876 -1875m-1994 1875l1876 -1875m-1994 1875l1876 -1875m-1994 1875l1875 -1875m-1993 1875l1875 -1875m-1993 1875l1875 -1875m-1993 1875l1875 -1875m-1993 1875l1875 -1875m-1993 1875l1875 -1875m-1994 1875l1876 -1875m-1994 1875l1876 -1875m-1994 1875l1876 -1875m-1994 1875l1875 -1875m-1993 1875l1875 -1875m-1993 1875l1875 -1875m-1993 1875l1875 -1875m-1993 1875l1875 -1875m-1993 1875l1875 -1875m-1994 1875l1876 -1875m-1994 1875l1876 -1875m-1994 1875l1876 -1875m-1994 1875l1876 -1875m-1994 1875l1875 -1875m-1993 1875l1875 -1875m-1993 1875l1875 -1875m-1993 1875l1875 -1875m-1993 1875l1875 -1875m-1994 1875l1876 -1875m-1994 1875l1876 -1875m-1994 1875l1876 -1875m-1994 1875l1876 -1875m-1994 1875l1875 -1875m-1993 1875l1875 -1875m-1993 1875l1875 -1875m-1993 1875l1875 -1875m-1993 1875l1875 -1875m-1994 1875l1876 -1875m-1994 1875l1876 -1875m-1994 1875l1876 -1875m-1994 1875l1876 -1875m-1994 1875l1875 -1875m-1889 1772l1771 -1772m-1771 1654l1653 -1654m-1653 1535l1535 -1535m-1535 1417l1417 -1417m-1417 1299l1299 -1299m-1299 1181l1181 -1181m-1181 1063l1063 -1063m-1063 945l945 -945m-945 827l826 -827m-826 709l708 -709m-708 591l590 -591m-590 472l472 -472m-472 354l354 -354m-354 236l236 -236m-236 118l118 -118"/>
 </g>
</svg>
